<svg width="32" height="32" viewBox="0 0 32 32" fill="none" xmlns="http://www.w3.org/2000/svg">
<path d="M4.84133 26.6666C5.49589 26.6666 6.02651 26.136 6.02651 25.4814C6.02651 24.8268 5.49589 24.2962 4.84133 24.2962H1.28577C0.631211 24.2962 0.100586 24.8268 0.100586 25.4814C0.100586 26.136 0.631211 26.6666 1.28577 26.6666H4.84133Z" fill="url(#paint0_radial_376_1047652)"/>
<path d="M2.47096 21.9258C3.12552 21.9258 3.65614 21.3952 3.65614 20.7407C3.65614 20.0861 3.12552 19.5555 2.47096 19.5555C1.8164 19.5555 1.28577 20.0861 1.28577 20.7407C1.28577 21.3952 1.8164 21.9258 2.47096 21.9258Z" fill="url(#paint1_radial_376_1047652)"/>
<path d="M2.47096 12.4444H3.65614C4.3107 12.4444 4.84133 11.9137 4.84133 11.2592C4.84133 10.6046 4.3107 10.074 3.65614 10.074H2.47096C1.8164 10.074 1.28577 10.6046 1.28577 11.2592C1.28577 11.9137 1.8164 12.4444 2.47096 12.4444Z" fill="url(#paint2_radial_376_1047652)"/>
<path d="M4.84133 17.1851C4.18677 17.1851 3.65614 16.6545 3.65614 15.9999C3.65614 15.3454 4.18677 14.8147 4.84133 14.8147H7.2117C7.86626 14.8147 8.39688 15.3454 8.39688 15.9999C8.39688 16.6545 7.86626 17.1851 7.2117 17.1851H4.84133Z" fill="url(#paint3_radial_376_1047652)"/>
<path fill-rule="evenodd" clip-rule="evenodd" d="M15.3887 5.74795C15.1635 5.48477 14.8345 5.33325 14.4882 5.33325H4.84133C4.18677 5.33325 3.65614 5.86388 3.65614 6.51844C3.65614 7.173 4.18677 7.70362 4.84133 7.70362H7.2117C7.86626 7.70362 8.39688 8.23425 8.39688 8.88881C8.39688 9.54337 7.86626 10.074 7.2117 10.074C6.55714 10.074 6.02651 10.6046 6.02651 11.2592C6.02651 11.9137 6.55714 12.4444 7.2117 12.4444H14.3228C14.9774 12.4444 15.508 12.975 15.508 13.6295C15.508 14.2841 14.9774 14.8147 14.3228 14.8147H10.7673C10.1127 14.8147 9.58207 15.3454 9.58207 15.9999C9.58207 16.6545 10.1127 17.1851 10.7673 17.1851C11.4218 17.1851 11.9524 17.7157 11.9524 18.3703C11.9524 19.0248 11.4218 19.5555 10.7673 19.5555H6.02651C5.37195 19.5555 4.84133 20.0861 4.84133 20.7407C4.84133 21.3952 5.37195 21.9258 6.02651 21.9258H9.58207C10.2366 21.9258 10.7673 22.4565 10.7673 23.111C10.7673 23.7656 10.2366 24.2962 9.58207 24.2962H8.39688C7.74232 24.2962 7.2117 24.8268 7.2117 25.4814C7.2117 26.136 7.74232 26.6666 8.39688 26.6666H14.4882C14.8345 26.6666 15.1635 26.5151 15.3887 26.2519L19.3482 21.624L20.2483 20.5713L21.1493 21.624L25.1088 26.2519C25.3339 26.5151 25.663 26.6666 26.0093 26.6666H30.712C31.7241 26.6666 32.2705 25.4799 31.6126 24.7109L24.819 16.7704L24.1594 15.9999L24.819 15.2294L31.6126 7.28892C32.2705 6.51991 31.7241 5.33325 30.712 5.33325H26.0093C25.663 5.33325 25.3339 5.48477 25.1088 5.74795L21.1493 10.3759L20.2483 11.4284L19.3482 10.3759L15.3887 5.74795ZM15.508 17.1851H14.3228C13.6682 17.1851 13.1376 17.7157 13.1376 18.3703C13.1376 19.0248 13.6682 19.5555 14.3228 19.5555H15.508C16.1626 19.5555 16.6932 19.0248 16.6932 18.3703C16.6932 17.7157 16.1626 17.1851 15.508 17.1851ZM10.7673 10.074C11.4218 10.074 11.9524 9.54337 11.9524 8.88881C11.9524 8.23425 11.4218 7.70362 10.7673 7.70362C10.1127 7.70362 9.58207 8.23425 9.58207 8.88881C9.58207 9.54337 10.1127 10.074 10.7673 10.074Z" fill="url(#paint4_radial_376_1047652)"/>
<defs>
<radialGradient id="paint0_radial_376_1047652" cx="0" cy="0" r="1" gradientUnits="userSpaceOnUse" gradientTransform="translate(31.9563 15.9999) rotate(180) scale(31.8557 31.8557)">
<stop stop-color="#00A301"/>
<stop offset="1" stop-color="#235F1B"/>
</radialGradient>
<radialGradient id="paint1_radial_376_1047652" cx="0" cy="0" r="1" gradientUnits="userSpaceOnUse" gradientTransform="translate(31.9563 15.9999) rotate(180) scale(31.8557 31.8557)">
<stop stop-color="#00A301"/>
<stop offset="1" stop-color="#235F1B"/>
</radialGradient>
<radialGradient id="paint2_radial_376_1047652" cx="0" cy="0" r="1" gradientUnits="userSpaceOnUse" gradientTransform="translate(31.9563 15.9999) rotate(180) scale(31.8557 31.8557)">
<stop stop-color="#00A301"/>
<stop offset="1" stop-color="#235F1B"/>
</radialGradient>
<radialGradient id="paint3_radial_376_1047652" cx="0" cy="0" r="1" gradientUnits="userSpaceOnUse" gradientTransform="translate(31.9563 15.9999) rotate(180) scale(31.8557 31.8557)">
<stop stop-color="#00A301"/>
<stop offset="1" stop-color="#235F1B"/>
</radialGradient>
<radialGradient id="paint4_radial_376_1047652" cx="0" cy="0" r="1" gradientUnits="userSpaceOnUse" gradientTransform="translate(31.9563 15.9999) rotate(180) scale(31.8557 31.8557)">
<stop stop-color="#00A301"/>
<stop offset="1" stop-color="#235F1B"/>
</radialGradient>
</defs>
</svg>
