<svg width="16" height="17" viewBox="0 0 16 17" fill="none" xmlns="http://www.w3.org/2000/svg">
<path d="M2.42018 13.8334C2.74745 13.8334 3.01277 13.5681 3.01277 13.2408C3.01277 12.9135 2.74745 12.6482 2.42018 12.6482H0.642397C0.315117 12.6482 0.0498047 12.9135 0.0498047 13.2408C0.0498047 13.5681 0.315117 13.8334 0.642397 13.8334H2.42018Z" fill="url(#paint0_radial_376_1047810)"/>
<path d="M1.23499 11.463C1.56227 11.463 1.82758 11.1977 1.82758 10.8705C1.82758 10.5432 1.56227 10.2779 1.23499 10.2779C0.90771 10.2779 0.642397 10.5432 0.642397 10.8705C0.642397 11.1977 0.90771 11.463 1.23499 11.463Z" fill="url(#paint1_radial_376_1047810)"/>
<path d="M1.23499 6.7223H1.82758C2.15486 6.7223 2.42018 6.45699 2.42018 6.12971C2.42018 5.80243 2.15486 5.53712 1.82758 5.53712H1.23499C0.90771 5.53712 0.642397 5.80243 0.642397 6.12971C0.642397 6.45699 0.90771 6.7223 1.23499 6.7223Z" fill="url(#paint2_radial_376_1047810)"/>
<path d="M2.42018 9.09267C2.0929 9.09267 1.82758 8.82736 1.82758 8.50008C1.82758 8.1728 2.0929 7.90749 2.42018 7.90749H3.60536C3.93264 7.90749 4.19795 8.1728 4.19795 8.50008C4.19795 8.82736 3.93264 9.09267 3.60536 9.09267H2.42018Z" fill="url(#paint3_radial_376_1047810)"/>
<path fill-rule="evenodd" clip-rule="evenodd" d="M7.69387 3.3741C7.58129 3.24251 7.41677 3.16675 7.24359 3.16675H2.42017C2.09289 3.16675 1.82758 3.43206 1.82758 3.75934C1.82758 4.08662 2.0929 4.35193 2.42018 4.35193H3.60536C3.93264 4.35193 4.19795 4.61725 4.19795 4.94453C4.19795 5.27181 3.93264 5.53712 3.60536 5.53712C3.27808 5.53712 3.01277 5.80243 3.01277 6.12971C3.01277 6.45699 3.27808 6.7223 3.60536 6.7223H7.16092C7.4882 6.7223 7.75351 6.98762 7.75351 7.3149C7.75351 7.64218 7.4882 7.90749 7.16092 7.90749H5.38314C5.05586 7.90749 4.79055 8.1728 4.79055 8.50008C4.79055 8.82736 5.05586 9.09267 5.38314 9.09267C5.71042 9.09267 5.97573 9.35799 5.97573 9.68527C5.97573 10.0125 5.71042 10.2779 5.38314 10.2779H3.01277C2.68549 10.2779 2.42018 10.5432 2.42018 10.8705C2.42018 11.1977 2.68549 11.463 3.01277 11.463H4.79055C5.11783 11.463 5.38314 11.7284 5.38314 12.0556C5.38314 12.3829 5.11783 12.6482 4.79055 12.6482H4.19795C3.87067 12.6482 3.60536 12.9135 3.60536 13.2408C3.60536 13.5681 3.87067 13.8334 4.19795 13.8334H7.24359C7.41677 13.8334 7.58129 13.7577 7.69387 13.6261L9.6736 11.3121L10.1237 10.7858L10.5742 11.3121L12.5539 13.6261C12.6665 13.7577 12.831 13.8334 13.0042 13.8334H15.3555C15.8616 13.8334 16.1348 13.2401 15.8058 12.8556L12.409 8.88532L12.0792 8.50005L12.409 8.11484L15.8058 4.14458C16.1348 3.76008 15.8616 3.16675 15.3555 3.16675H13.0042C12.831 3.16675 12.6665 3.24251 12.5539 3.3741L10.5742 5.68806L10.1237 6.21433L9.6736 5.68806L7.69387 3.3741ZM7.75351 9.09267H7.16092C6.83364 9.09267 6.56832 9.35799 6.56832 9.68527C6.56832 10.0125 6.83364 10.2779 7.16092 10.2779H7.75351C8.08079 10.2779 8.3461 10.0125 8.3461 9.68527C8.3461 9.35799 8.08079 9.09267 7.75351 9.09267ZM5.38314 5.53712C5.71042 5.53712 5.97573 5.27181 5.97573 4.94453C5.97573 4.61725 5.71042 4.35193 5.38314 4.35193C5.05586 4.35193 4.79055 4.61725 4.79055 4.94453C4.79055 5.27181 5.05586 5.53712 5.38314 5.53712Z" fill="url(#paint4_radial_376_1047810)"/>
<defs>
<radialGradient id="paint0_radial_376_1047810" cx="0" cy="0" r="1" gradientUnits="userSpaceOnUse" gradientTransform="translate(15.9777 8.50008) rotate(180) scale(15.9279 15.9279)">
<stop stop-color="#00A301"/>
<stop offset="1" stop-color="#235F1B"/>
</radialGradient>
<radialGradient id="paint1_radial_376_1047810" cx="0" cy="0" r="1" gradientUnits="userSpaceOnUse" gradientTransform="translate(15.9777 8.50008) rotate(180) scale(15.9279 15.9279)">
<stop stop-color="#00A301"/>
<stop offset="1" stop-color="#235F1B"/>
</radialGradient>
<radialGradient id="paint2_radial_376_1047810" cx="0" cy="0" r="1" gradientUnits="userSpaceOnUse" gradientTransform="translate(15.9777 8.50008) rotate(180) scale(15.9279 15.9279)">
<stop stop-color="#00A301"/>
<stop offset="1" stop-color="#235F1B"/>
</radialGradient>
<radialGradient id="paint3_radial_376_1047810" cx="0" cy="0" r="1" gradientUnits="userSpaceOnUse" gradientTransform="translate(15.9777 8.50008) rotate(180) scale(15.9279 15.9279)">
<stop stop-color="#00A301"/>
<stop offset="1" stop-color="#235F1B"/>
</radialGradient>
<radialGradient id="paint4_radial_376_1047810" cx="0" cy="0" r="1" gradientUnits="userSpaceOnUse" gradientTransform="translate(15.9777 8.50008) rotate(180) scale(15.9279 15.9279)">
<stop stop-color="#00A301"/>
<stop offset="1" stop-color="#235F1B"/>
</radialGradient>
</defs>
</svg>
