<svg width="125" height="40" viewBox="0 0 125 40" fill="none" xmlns="http://www.w3.org/2000/svg">
    <path d="M64.5924 17.8001L68.8924 25.0001H65.7524L63.0324 20.4401L60.3124 25.0001H57.1924L61.4724 17.8201L57.4124 11.0001H60.5324L63.0324 15.2001L65.5324 11.0001H68.6524L64.5924 17.8001Z" fill="black"/>
    <path d="M77.3144 20.2001H69.8144V17.7201H77.3144V20.2001Z" fill="black"/>
    <path d="M88.2721 11.0001V13.6401H82.6721V16.9601H88.1121V19.6001H82.6721V25.0001H79.9121V11.0001H88.2721Z" fill="black"/>
    <path d="M91.4432 13.8001C91.0165 13.8001 90.6432 13.6468 90.3232 13.3401C90.0165 13.0201 89.8632 12.6468 89.8632 12.2201C89.8632 11.7935 90.0165 11.4201 90.3232 11.1001C90.6432 10.7801 91.0165 10.6201 91.4432 10.6201C91.8832 10.6201 92.2565 10.7801 92.5632 11.1001C92.8832 11.4201 93.0432 11.7935 93.0432 12.2201C93.0432 12.6468 92.8832 13.0201 92.5632 13.3401C92.2565 13.6468 91.8832 13.8001 91.4432 13.8001ZM92.7432 25.0001H90.1632V15.0001H92.7432V25.0001Z" fill="black"/>
    <path d="M100.925 14.7201C102.271 14.7201 103.418 15.2335 104.365 16.2601C105.325 17.2868 105.805 18.5335 105.805 20.0001C105.805 21.4935 105.325 22.7468 104.365 23.7601C103.431 24.7735 102.285 25.2801 100.925 25.2801C99.5246 25.2801 98.4446 24.7935 97.6846 23.8201V25.0001H95.1046V11.0001H97.6846V16.1801C98.4446 15.2068 99.5246 14.7201 100.925 14.7201ZM98.4646 22.0401C98.9846 22.5601 99.6446 22.8201 100.445 22.8201C101.245 22.8201 101.905 22.5601 102.425 22.0401C102.958 21.5068 103.225 20.8268 103.225 20.0001C103.225 19.1735 102.958 18.5001 102.425 17.9801C101.905 17.4468 101.245 17.1801 100.445 17.1801C99.6446 17.1801 98.9846 17.4468 98.4646 17.9801C97.9446 18.5001 97.6846 19.1735 97.6846 20.0001C97.6846 20.8268 97.9446 21.5068 98.4646 22.0401Z" fill="black"/>
    <path d="M117.344 21.0601H109.804C110.137 22.3135 111.077 22.9401 112.624 22.9401C113.611 22.9401 114.357 22.6068 114.864 21.9401L116.944 23.1401C115.957 24.5668 114.504 25.2801 112.584 25.2801C110.931 25.2801 109.604 24.7801 108.604 23.7801C107.604 22.7801 107.104 21.5201 107.104 20.0001C107.104 18.5068 107.597 17.2535 108.584 16.2401C109.557 15.2268 110.824 14.7201 112.384 14.7201C113.864 14.7201 115.071 15.2268 116.004 16.2401C116.964 17.2535 117.444 18.5068 117.444 20.0001C117.444 20.2801 117.411 20.6335 117.344 21.0601ZM109.764 19.0601H114.864C114.717 18.4068 114.417 17.9068 113.964 17.5601C113.524 17.2135 112.997 17.0401 112.384 17.0401C111.691 17.0401 111.117 17.2201 110.664 17.5801C110.211 17.9268 109.911 18.4201 109.764 19.0601Z" fill="black"/>
    <path d="M121.825 15.0001V16.7201C122.052 16.0935 122.439 15.6201 122.985 15.3001C123.532 14.9668 124.159 14.8001 124.865 14.8001V17.6801C124.079 17.5735 123.372 17.7335 122.745 18.1601C122.132 18.5735 121.825 19.2601 121.825 20.2201V25.0001H119.245V15.0001H121.825Z" fill="black"/>
    <path d="M8.04373 36C9.02557 36 9.82151 35.2041 9.82151 34.2222C9.82151 33.2404 9.02557 32.4444 8.04373 32.4444H2.71039C1.72856 32.4444 0.932617 33.2404 0.932617 34.2222C0.932617 35.2041 1.72856 36 2.71039 36H8.04373Z" fill="url(#paint0_radial_163_5098)"/>
    <path d="M4.48817 28.8889C5.47001 28.8889 6.26595 28.093 6.26595 27.1111C6.26595 26.1293 5.47001 25.3333 4.48817 25.3333C3.50633 25.3333 2.71039 26.1293 2.71039 27.1111C2.71039 28.093 3.50633 28.8889 4.48817 28.8889Z" fill="url(#paint1_radial_163_5098)"/>
    <path d="M4.48817 14.6667H6.26595C7.24779 14.6667 8.04373 13.8707 8.04373 12.8889C8.04373 11.907 7.24779 11.1111 6.26595 11.1111H4.48817C3.50633 11.1111 2.71039 11.907 2.71039 12.8889C2.71039 13.8707 3.50633 14.6667 4.48817 14.6667Z" fill="url(#paint2_radial_163_5098)"/>
    <path d="M8.04373 21.7778C7.06189 21.7778 6.26595 20.9818 6.26595 20C6.26595 19.0182 7.06189 18.2222 8.04373 18.2222H11.5993C12.5811 18.2222 13.3771 19.0182 13.3771 20C13.3771 20.9818 12.5811 21.7778 11.5993 21.7778H8.04373Z" fill="url(#paint3_radial_163_5098)"/>
    <path fill-rule="evenodd" clip-rule="evenodd" d="M23.8648 4.62205C23.5271 4.22727 23.0335 4 22.514 4H8.04373C7.06189 4 6.26595 4.79594 6.26595 5.77778C6.26595 6.75962 7.06189 7.55556 8.04373 7.55556H11.5993C12.5811 7.55556 13.3771 8.35149 13.3771 9.33333C13.3771 10.3152 12.5811 11.1111 11.5993 11.1111C10.6174 11.1111 9.82151 11.907 9.82151 12.8889C9.82151 13.8707 10.6174 14.6667 11.5993 14.6667H22.266C23.2478 14.6667 24.0437 15.4626 24.0437 16.4444C24.0437 17.4263 23.2478 18.2222 22.266 18.2222H16.9326C15.9508 18.2222 15.1548 19.0182 15.1548 20C15.1548 20.9818 15.9508 21.7778 16.9326 21.7778C17.9145 21.7778 18.7104 22.5737 18.7104 23.5556C18.7104 24.5374 17.9145 25.3333 16.9326 25.3333H9.82151C8.83967 25.3333 8.04373 26.1293 8.04373 27.1111C8.04373 28.093 8.83967 28.8889 9.82151 28.8889H15.1548C16.1367 28.8889 16.9326 29.6848 16.9326 30.6667C16.9326 31.6485 16.1367 32.4444 15.1548 32.4444H13.3771C12.3952 32.4444 11.5993 33.2404 11.5993 34.2222C11.5993 35.2041 12.3952 36 13.3771 36H22.514C23.0335 36 23.5271 35.7727 23.8648 35.3779L29.804 28.4361L31.1542 26.857L32.5057 28.4361L38.4449 35.3779C38.7826 35.7727 39.2762 36 39.7957 36H46.8498C48.3679 36 49.1875 34.22 48.2006 33.0665L38.0103 21.1557L37.0208 19.9999L38.0103 18.8443L48.2006 6.9335C49.1875 5.77998 48.3679 4 46.8498 4H39.7957C39.2762 4 38.7826 4.22727 38.4449 4.62205L32.5057 11.5639L31.1542 13.1428L29.804 11.5639L23.8648 4.62205ZM24.0437 21.7778H22.266C21.2841 21.7778 20.4882 22.5737 20.4882 23.5556C20.4882 24.5374 21.2841 25.3333 22.266 25.3333H24.0437C25.0256 25.3333 25.8215 24.5374 25.8215 23.5556C25.8215 22.5737 25.0256 21.7778 24.0437 21.7778ZM16.9326 11.1111C17.9145 11.1111 18.7104 10.3152 18.7104 9.33333C18.7104 8.35149 17.9145 7.55556 16.9326 7.55556C15.9508 7.55556 15.1548 8.35149 15.1548 9.33333C15.1548 10.3152 15.9508 11.1111 16.9326 11.1111Z" fill="url(#paint4_radial_163_5098)"/>
    <defs>
        <radialGradient id="paint0_radial_163_5098" cx="0" cy="0" r="1" gradientUnits="userSpaceOnUse" gradientTransform="translate(48.7162 20) rotate(180) scale(47.7836 47.7836)">
            <stop stop-color="#00A301"/>
            <stop offset="1" stop-color="#235F1B"/>
        </radialGradient>
        <radialGradient id="paint1_radial_163_5098" cx="0" cy="0" r="1" gradientUnits="userSpaceOnUse" gradientTransform="translate(48.7162 20) rotate(180) scale(47.7836 47.7836)">
            <stop stop-color="#00A301"/>
            <stop offset="1" stop-color="#235F1B"/>
        </radialGradient>
        <radialGradient id="paint2_radial_163_5098" cx="0" cy="0" r="1" gradientUnits="userSpaceOnUse" gradientTransform="translate(48.7162 20) rotate(180) scale(47.7836 47.7836)">
            <stop stop-color="#00A301"/>
            <stop offset="1" stop-color="#235F1B"/>
        </radialGradient>
        <radialGradient id="paint3_radial_163_5098" cx="0" cy="0" r="1" gradientUnits="userSpaceOnUse" gradientTransform="translate(48.7162 20) rotate(180) scale(47.7836 47.7836)">
            <stop stop-color="#00A301"/>
            <stop offset="1" stop-color="#235F1B"/>
        </radialGradient>
        <radialGradient id="paint4_radial_163_5098" cx="0" cy="0" r="1" gradientUnits="userSpaceOnUse" gradientTransform="translate(48.7162 20) rotate(180) scale(47.7836 47.7836)">
            <stop stop-color="#00A301"/>
            <stop offset="1" stop-color="#235F1B"/>
        </radialGradient>
    </defs>
</svg>
